<?xml version="1.0" encoding="iso-8859-1"?>
<!-- Uploaded to: SVG Repo, www.svgrepo.com, Generator: SVG Repo Mixer Tools -->
<svg version="1.1" id="Layer_1" xmlns="http://www.w3.org/2000/svg" xmlns:xlink="http://www.w3.org/1999/xlink" 
	 viewBox="0 0 512 512" xml:space="preserve">
<path style="fill:#31C0D8;" d="M172.408,151.51c-17.347,0-31.347-14-31.347-31.347v-10.449c0-17.347,14-31.347,31.347-31.347h26.122
	h5.224c-62.694,0-41.796-67.918-41.796-67.918c14.102,10.449,41.796,15.673,41.796,15.673h104.49
	c14.419,0,26.122,11.704,26.122,26.122s-11.704,26.122-26.122,26.122h31.347c17.347,0,31.347,14,31.347,31.347v10.449
	c0,17.347-14,31.347-31.347,31.347h26.122c17.347,0,31.347,14,31.347,31.347v10.449c0,17.347-14,31.347-31.347,31.347H146.286
	c-17.347,0-31.347-14-31.347-31.347v-10.449c0-17.347,14-31.347,31.347-31.347h20.898H172.408z"/>
<path style="fill:#FFD248;" d="M177.633,308.245h-10.449c-11.49,0-20.898-9.408-20.898-20.898v-62.694h219.429v62.694
	c0,11.49-9.408,20.898-20.898,20.898h-10.449L303.02,501.551H208.98L177.633,308.245z"/>
<g>
	<path style="fill:#231F20;" d="M375.137,142.132c3.961-6.387,6.251-13.916,6.251-21.969v-10.449
		c0-22.485-17.846-40.88-40.119-41.762c2.274-4.762,3.547-10.088,3.547-15.707c0-20.165-16.406-36.571-36.571-36.571H204.771
		c-7.789-1.578-27.053-6.553-36.591-13.62c-2.724-2.019-6.258-2.589-9.48-1.532c-3.221,1.058-5.729,3.613-6.727,6.856
		c-0.117,0.381-2.889,9.495-3.625,21.274c-1.028,16.456,2.405,30.54,9.931,40.729c0.201,0.272,0.419,0.525,0.626,0.791
		c-16.436,5.629-28.292,21.223-28.292,39.543v10.449c0,8.059,2.299,15.589,6.266,21.978c-18.528,4.281-32.389,20.905-32.389,40.715
		v10.449c0,19.439,13.341,35.821,31.347,40.473v53.568c0,17.285,14.062,31.347,31.347,31.347h1.558l29.924,184.53
		c0.82,5.059,5.189,8.776,10.314,8.776h94.041c5.125,0,9.494-3.718,10.314-8.776l29.924-184.53h1.558
		c17.285,0,31.347-14.062,31.347-31.347v-53.568c18.006-4.652,31.347-21.035,31.347-40.473v-10.449
		C407.51,163.05,393.659,146.416,375.137,142.132z M344.816,297.796h-10.449c-5.125,0-9.494,3.718-10.314,8.776l-29.924,184.53
		h-76.259l-27.958-172.408h86.986v-20.898h-99.265h-10.449c-5.762,0-10.449-4.687-10.449-10.449v-52.245h198.531v52.245
		C355.265,293.109,350.578,297.796,344.816,297.796z M386.612,193.306c0,11.523-9.375,20.898-20.898,20.898H146.286
		c-11.523,0-20.898-9.375-20.898-20.898v-10.449c0-11.523,9.375-20.898,20.898-20.898h20.898h109.714v-20.898h-104.49
		c-11.523,0-20.898-9.375-20.898-20.898v-10.449c0-11.523,9.375-20.898,20.898-20.898h26.122h62.694V67.918h-57.469
		c-13.628,0-23.263-3.672-28.634-10.911c-6.102-8.222-6.647-20.593-5.636-30.454c14.322,6.302,30.048,9.405,32.333,9.836
		c0.639,0.122,1.287,0.182,1.937,0.182h104.49c8.642,0,15.673,7.031,15.673,15.673s-7.031,15.673-15.673,15.673
		c-5.771,0-10.449,4.678-10.449,10.449c0,5.77,4.678,10.449,10.449,10.449h31.347c11.523,0,20.898,9.375,20.898,20.898v10.449
		c0,11.523-9.375,20.898-20.898,20.898c-5.771,0-10.449,4.679-10.449,10.449c0,5.771,4.678,10.449,10.449,10.449h26.122
		c11.523,0,20.898,9.375,20.898,20.898V193.306z"/>
	<rect x="188.082" y="256" style="fill:#231F20;" width="31.347" height="20.898"/>
	<rect x="240.327" y="256" style="fill:#231F20;" width="31.347" height="20.898"/>
	<rect x="292.571" y="256" style="fill:#231F20;" width="31.347" height="20.898"/>
</g>
</svg>