<?xml version="1.0" encoding="UTF-8"?>
<svg version="1.1" xmlns="http://www.w3.org/2000/svg" width="512" height="512">
<path d="M0 0 C0.98274399 -0.01168213 1.96548798 -0.02336426 2.97801208 -0.03540039 C6.22396622 -0.06897017 9.46946376 -0.07972181 12.71557617 -0.08740234 C14.9761318 -0.09958447 17.23668581 -0.11207053 19.49723816 -0.12484741 C24.23582581 -0.14732094 28.97425267 -0.15687725 33.71289062 -0.15917969 C39.77603152 -0.16446126 45.83782956 -0.215786 51.90060902 -0.27869606 C56.57017752 -0.3196193 61.23942317 -0.32882232 65.90915489 -0.32929611 C68.14384329 -0.33467318 70.3785353 -0.35150672 72.61304665 -0.38014603 C75.74431443 -0.41693115 78.8725421 -0.40913763 82.00390625 -0.390625 C82.92106415 -0.4110788 83.83822205 -0.43153259 84.78317261 -0.4526062 C90.992729 -0.35205833 94.15061308 1.32486658 98.64528942 5.58724403 C101.16520041 8.61684005 101.99947831 11.58023443 102.75854492 15.38916016 C102.93925537 16.1689624 103.11996582 16.94876465 103.30615234 17.75219727 C103.7193932 19.56252908 104.11706385 21.37645562 104.50268555 23.19287109 C105.16814625 26.32053639 105.86206309 29.44035503 106.56446838 32.55986023 C108.01626143 39.00888964 109.44655922 45.4625434 110.84057617 51.92431641 C111.23273315 53.73814819 111.23273315 53.73814819 111.6328125 55.58862305 C112.19604492 58.45166016 112.19604492 58.45166016 112.19604492 60.45166016 C112.97879134 60.450521 113.76153776 60.44938183 114.56800377 60.44820815 C160.93841641 60.38110435 207.30882378 60.32961587 253.67927522 60.29846417 C259.24443552 60.29471195 264.80959571 60.290829 270.37475586 60.28686523 C271.48270008 60.2860783 272.59064429 60.28529137 273.73216258 60.28448059 C291.68243517 60.27141924 309.632679 60.24776138 327.58293451 60.22020177 C345.99538374 60.19216786 364.40781789 60.17548816 382.82028759 60.16939467 C394.18587872 60.16527405 405.55138856 60.15224961 416.91695468 60.12791076 C424.7059886 60.11207844 432.49498036 60.10725411 440.2840292 60.11115602 C444.78092002 60.11308147 449.27766857 60.1100866 453.77453423 60.09404373 C457.89026452 60.07946754 462.00575658 60.0786929 466.12149774 60.08896347 C467.6115052 60.09023324 469.10152741 60.08640832 470.59150578 60.07701061 C472.61554012 60.06498535 474.63966462 60.07324728 476.66371346 60.08251667 C478.35081088 60.08080793 478.35081088 60.08080793 480.07199109 60.07906467 C484.93210615 60.65871439 488.17631144 62.40509158 491.57104492 65.88916016 C496.72596622 77.19033378 491.09784682 90.42675922 487.82763672 101.61303711 C487.24988036 103.63259448 486.67351188 105.65254933 486.09841919 107.67286682 C484.54032437 113.13120414 482.96264034 118.5836987 481.38102317 124.03525949 C479.72594468 129.75168001 478.0882581 135.4730805 476.44844055 141.19389343 C473.69397565 150.79403383 470.92771763 160.39070942 468.15332031 169.98510742 C464.59432913 182.29297405 461.05427269 194.6062009 457.52037334 206.9212923 C454.47782487 217.52377397 451.42727775 228.12395129 448.37509561 238.72366309 C447.39599307 242.12490761 446.41785579 245.52642872 445.43979454 248.92797279 C443.90213942 254.27355801 442.35951678 259.61768627 440.81305313 264.9607296 C440.24674121 266.91983018 439.68195249 268.87937182 439.11881065 270.83938599 C438.34900986 273.51752981 437.57357994 276.19398075 436.79667664 278.87007141 C436.57584921 279.64303143 436.35502179 280.41599146 436.12750262 281.21237451 C432.17795365 294.73493458 432.17795365 294.73493458 426.3439424 299.31266749 C422.07376443 301.57706858 417.59133404 301.2610471 412.86087036 301.19096375 C411.1585827 301.20160385 411.1585827 301.20160385 409.4219054 301.21245891 C405.6222995 301.22901685 401.82419425 301.20288432 398.0246582 301.17700195 C395.29932557 301.17691108 392.57404126 301.18591059 389.84872437 301.1946106 C383.98120965 301.20873567 378.11404201 301.20132987 372.24655533 301.17954063 C363.75346359 301.14829722 355.26068255 301.15306314 346.76755868 301.16708384 C332.97431081 301.18915794 319.18118685 301.18672655 305.38793945 301.16674805 C304.56286785 301.16555872 303.73779625 301.1643694 302.88772248 301.16314403 C301.64859119 301.16135579 301.64859119 301.16135579 300.38442695 301.15953141 C288.67791479 301.14269091 276.97141652 301.13165773 265.26489258 301.12768555 C264.02970696 301.12725721 264.02970696 301.12725721 262.7695681 301.12682023 C249.02947251 301.12254914 235.28939892 301.13038925 221.54931056 301.14438373 C213.07990681 301.1522289 204.61066947 301.1477292 196.14128612 301.12712715 C190.33609873 301.11349566 184.53096456 301.11000589 178.72576298 301.114405 C175.37873908 301.1165023 172.03206728 301.11192643 168.68505096 301.09741783 C165.05161543 301.08230144 161.4186352 301.08560165 157.78518677 301.0933075 C156.73449355 301.0843672 155.68380034 301.07542691 154.60126793 301.06621569 C147.22096372 301.10947861 140.05985724 301.58784784 134.63354492 307.01416016 C132.32464557 312.53544122 132.12802648 317.80971979 134.38354492 323.38916016 C137.79111848 327.26674386 141.19894677 328.63947974 146.19604492 329.45166016 C147.8410239 329.53814829 149.48890245 329.57819095 151.13615322 329.57915211 C152.11079224 329.58215976 153.08543126 329.5851674 154.08960479 329.58826619 C155.1526315 329.58651582 156.2156582 329.58476545 157.31089783 329.58296204 C158.44616411 329.58507775 159.5814304 329.58719346 160.75109869 329.58937329 C164.56340486 329.59537515 168.37567795 329.59437301 172.18798828 329.59350586 C174.91787375 329.59596509 177.64775625 329.59998419 180.37763977 329.60403442 C186.26034983 329.61214174 192.14305557 329.61708925 198.02577019 329.62032509 C207.32380368 329.62582526 216.62180057 329.64272577 225.91981506 329.66166687 C229.10154241 329.66802331 232.28326986 329.67433176 235.46499729 329.68064404 C236.2601053 329.6822278 237.05521331 329.68381156 237.8744155 329.68544332 C246.92229651 329.70337475 255.9701801 329.71960437 265.01806641 329.73461914 C265.84505594 329.73599501 266.67204548 329.73737088 267.5240953 329.73878845 C280.93129813 329.76072758 294.33849151 329.77147731 307.74570911 329.77898989 C321.51174985 329.7870591 335.2777096 329.81034152 349.04370409 329.84694356 C357.53446456 329.86897321 366.02505853 329.87863183 374.51584614 329.87244322 C380.33322774 329.86927017 386.15046704 329.88058849 391.9678046 329.90333764 C395.32462597 329.91601244 398.6808651 329.91999277 402.0377388 329.9109211 C405.67688589 329.90207839 409.31513446 329.9176538 412.95420837 329.93940735 C414.01500435 329.93096481 415.07580033 329.92252227 416.16874164 329.9138239 C422.16103632 329.9802369 425.63505814 330.45057017 430.19604492 334.45166016 C434.2523489 339.67425873 433.97002036 345.10506158 433.19604492 351.45166016 C431.00582678 356.07545402 428.69121383 358.15510474 424.19604492 360.45166016 C421.51708984 360.8840332 421.51708984 360.8840332 418.67651367 360.96337891 C417.14414062 361.01655273 417.14414062 361.01655273 415.58081055 361.07080078 C414.52571289 361.09335937 413.47061523 361.11591797 412.38354492 361.13916016 C411.30911133 361.17332031 410.23467773 361.20748047 409.12768555 361.24267578 C406.48390959 361.32492659 403.84045571 361.39415224 401.19604492 361.45166016 C402.09009033 361.83692871 402.09009033 361.83692871 403.00219727 362.22998047 C417.88085528 368.72523219 426.11136881 377.12355071 432.30932617 392.15087891 C435.17659466 402.82419113 434.67234273 416.7794384 429.19604492 426.45166016 C423.05186282 436.5902541 415.22386599 443.95094401 404.19604492 448.45166016 C403.3272168 448.80873047 402.45838867 449.16580078 401.56323242 449.53369141 C390.884068 452.44506454 376.88303078 451.93631722 367.19604492 446.45166016 C357.05745098 440.30747806 349.69676106 432.47948123 345.19604492 421.45166016 C344.83897461 420.58283203 344.4819043 419.71400391 344.11401367 418.81884766 C341.20264054 408.13968324 341.71138785 394.13864602 347.19604492 384.45166016 C353.94407718 373.31664531 362.7638955 365.59570996 375.19604492 361.45166016 C313.81604492 361.45166016 252.43604492 361.45166016 189.19604492 361.45166016 C192.16604492 362.77166016 195.13604492 364.09166016 198.19604492 365.45166016 C209.54900469 371.65658111 215.46758645 380.41178364 220.30932617 392.15087891 C223.17659466 402.82419113 222.67234273 416.7794384 217.19604492 426.45166016 C211.05186282 436.5902541 203.22386599 443.95094401 192.19604492 448.45166016 C191.3272168 448.80873047 190.45838867 449.16580078 189.56323242 449.53369141 C178.884068 452.44506454 164.88303078 451.93631722 155.19604492 446.45166016 C145.05745098 440.30747806 137.69676106 432.47948123 133.19604492 421.45166016 C132.83897461 420.58283203 132.4819043 419.71400391 132.11401367 418.81884766 C129.20264054 408.13968324 129.71138785 394.13864602 135.19604492 384.45166016 C141.94407718 373.31664531 150.7638955 365.59570996 163.19604492 361.45166016 C162.43573975 361.44231445 161.67543457 361.43296875 160.89208984 361.42333984 C157.38862659 361.3690762 153.88641941 361.2855395 150.38354492 361.20166016 C149.18793945 361.18748047 147.99233398 361.17330078 146.76049805 361.15869141 C133.71564479 360.80324581 124.03016466 357.09283846 114.19604492 348.45166016 C109.47386284 343.43160388 105.8014327 337.8354776 103.19604492 331.45166016 C102.83768555 330.57380859 102.47932617 329.69595703 102.11010742 328.79150391 C99.02113864 317.50488722 100.25830306 303.98565949 105.63745117 293.69384766 C110.4870239 285.43494654 116.75686412 279.04975202 125.19604492 274.45166016 C125.85604492 274.45166016 126.51604492 274.45166016 127.19604492 274.45166016 C124.76802873 263.33879824 122.33427673 252.22719756 119.8976593 241.11621857 C119.47312201 239.18019776 119.04867271 237.24415766 118.62431335 235.30809784 C112.36652664 206.75958666 106.03961624 178.22702133 99.65608025 149.70640564 C98.52241369 144.64134804 97.38953181 139.57611512 96.25672913 134.51086426 C95.50013736 131.12816358 94.74349094 127.74547513 93.98681641 124.36279297 C93.79947736 123.52528 93.61213832 122.68776703 93.41912234 121.82487488 C91.14876642 111.67590625 88.87453738 101.52781898 86.59501368 91.38090551 C85.14260387 84.91462896 83.69392131 78.44752432 82.24798578 71.97979701 C81.40096213 68.19182712 80.55203335 64.40430757 79.69838524 60.61782455 C78.90837667 57.11361608 78.12324614 53.60835149 77.34192455 50.10219622 C76.92086589 48.21886347 76.49450557 46.33671846 76.06797886 44.45461655 C75.81925494 43.33414051 75.57053102 42.21366447 75.31427002 41.05923462 C75.09689304 40.09063318 74.87951607 39.12203175 74.65555191 38.12407875 C74.20568488 35.50772462 74.10992973 33.10024166 74.19604492 30.45166016 C72.63749283 30.46498383 72.63749283 30.46498383 71.04745483 30.47857666 C61.24843309 30.55971569 51.44947963 30.61965112 41.65019798 30.65890884 C36.61244057 30.67977031 31.57495467 30.70806178 26.53735352 30.75341797 C21.67440757 30.7969269 16.81172255 30.8208081 11.94859695 30.83116913 C10.09465046 30.83855142 8.240718 30.85296743 6.38688278 30.87458038 C3.7869879 30.9036817 1.18816671 30.90761339 -1.41186523 30.90576172 C-2.55770081 30.92733337 -2.55770081 30.92733337 -3.72668457 30.94934082 C-8.90521523 30.90951775 -11.81494454 29.71603248 -15.80395508 26.45166016 C-19.86025906 21.22906158 -19.57793051 15.79825873 -18.80395508 9.45166016 C-14.69117393 0.76912219 -8.75281151 0.00200503 0 0 Z M119.19604492 90.45166016 C119.83897133 96.23799787 120.50923239 101.42070888 121.75892639 107.02577209 C121.91458069 107.73006851 122.07023499 108.43436493 122.23060608 109.16000366 C122.74850343 111.49791668 123.27317022 113.8342552 123.79785156 116.1706543 C124.17884933 117.88376412 124.55942672 119.59696747 124.93962002 121.310256 C125.95470242 125.87913864 126.97549857 130.44672636 127.99752045 135.01406097 C128.95727901 139.30726055 129.91182919 143.60161155 130.86682129 147.89587402 C133.65885663 160.4364629 136.45920389 172.97520005 139.25854492 185.51416016 C145.50791992 213.54353516 151.75729492 241.57291016 158.19604492 270.45166016 C240.03604492 270.45166016 321.87604492 270.45166016 406.19604492 270.45166016 C408.13015501 265.29403324 409.87314317 260.39697359 411.3790741 255.13861084 C411.57764788 254.44856091 411.77622167 253.75851098 411.98081285 253.04755044 C412.6379498 250.76093468 413.29042665 248.47301729 413.94287109 246.18505859 C414.41594749 244.53514085 414.88929769 242.88530159 415.36289978 241.23553467 C416.64270114 236.77397264 417.91829385 232.31121796 419.19282317 227.84814739 C420.25790485 224.11976558 421.32492153 220.39193864 422.39189225 216.66409707 C424.90773546 207.87378629 427.42002542 199.0824653 429.93017578 190.29052734 C432.52036344 181.21851724 435.11688642 172.14833725 437.71644992 163.07900977 C439.94958816 155.28715274 442.17865352 147.49413846 444.40447408 139.70018792 C445.73337427 135.04709507 447.06386336 130.3944713 448.39833641 125.74297333 C449.65147086 121.37437489 450.89952804 117.00435801 452.14365578 112.63318634 C452.60138881 111.02822435 453.06093194 109.42377735 453.5223999 107.81988525 C454.15114317 105.63354043 454.77337115 103.44544402 455.39396667 101.2567749 C455.74403872 100.03196285 456.09411077 98.8071508 456.45479107 97.54522324 C457.35138884 94.33353325 457.35138884 94.33353325 457.19604492 90.45166016 C345.65604492 90.45166016 234.11604492 90.45166016 119.19604492 90.45166016 Z M163.32104492 397.57666016 C161.63120241 401.89514658 161.53643509 405.87836535 162.19604492 410.45166016 C164.3590333 414.85774758 166.59284971 417.65040986 171.19604492 419.45166016 C176.23929876 420.13592073 180.02681377 420.02564636 184.63354492 417.76416016 C187.99260504 414.73281322 189.88960123 412.71026367 190.51245117 408.11962891 C190.77818144 402.40214206 190.16451644 398.84915562 186.19604492 394.45166016 C182.35891296 391.06595549 178.5620303 390.93874843 173.63354492 391.10009766 C168.97078347 391.77261133 166.344142 394.15048347 163.32104492 397.57666016 Z M375.32104492 397.57666016 C373.63120241 401.89514658 373.53643509 405.87836535 374.19604492 410.45166016 C376.3590333 414.85774758 378.59284971 417.65040986 383.19604492 419.45166016 C388.23929876 420.13592073 392.02681377 420.02564636 396.63354492 417.76416016 C399.99260504 414.73281322 401.88960123 412.71026367 402.51245117 408.11962891 C402.77818144 402.40214206 402.16451644 398.84915562 398.19604492 394.45166016 C394.35891296 391.06595549 390.5620303 390.93874843 385.63354492 391.10009766 C380.97078347 391.77261133 378.344142 394.15048347 375.32104492 397.57666016 Z " fill="#000000" transform="translate(18.803955078125,30.54833984375)"/>
</svg>
